<?xml version="1.0" standalone="no"?>
<!DOCTYPE svg PUBLIC "-//W3C//DTD SVG 20010904//EN"
 "http://www.w3.org/TR/2001/REC-SVG-20010904/DTD/svg10.dtd">
<svg version="1.0" xmlns="http://www.w3.org/2000/svg"
 width="800.000000pt" height="800.000000pt" viewBox="0 0 800.000000 800.000000"
 preserveAspectRatio="xMidYMid meet">

<g transform="translate(0.000000,800.000000) scale(0.100000,-0.100000)"
fill="#000000" stroke="none">
<path d="M3748 7834 c-649 -50 -1175 -206 -1713 -507 -435 -244 -892 -640
-1163 -1010 -64 -87 -59 -86 23 3 601 653 1337 1038 2205 1155 165 23 517 30
691 16 1269 -107 2393 -907 2916 -2074 l63 -142 392 -7 c216 -4 394 -5 397 -3
11 12 -118 324 -213 515 -405 809 -1074 1424 -1939 1780 -377 156 -747 239
-1226 275 -228 17 -206 17 -433 -1z"/>
<path d="M3135 7254 c-16 -2 -73 -9 -125 -15 -523 -58 -1107 -299 -1542 -636
-411 -318 -761 -758 -982 -1234 l-44 -96 142 -6 c77 -4 238 -7 358 -7 l216 0
64 117 c322 595 807 1053 1391 1315 681 304 1473 336 2190 88 452 -156 845
-399 1178 -730 69 -69 148 -150 174 -180 57 -65 50 -54 -36 60 -219 292 -521
571 -844 783 -434 283 -971 472 -1512 531 -128 14 -535 20 -628 10z"/>
<path d="M6917 2720 l-149 -5 -47 -105 c-126 -283 -299 -568 -487 -805 -119
-149 -412 -440 -559 -553 -385 -298 -775 -499 -1218 -628 -556 -161 -1202
-171 -1772 -28 -688 174 -1307 547 -1786 1076 -43 48 -79 84 -79 80 0 -26 212
-275 370 -433 332 -334 626 -546 1032 -749 755 -376 1585 -500 2405 -360 653
112 1302 414 1801 838 139 117 383 367 486 495 210 263 374 532 511 835 46
103 135 332 135 347 0 6 -436 3 -643 -5z"/>
<path d="M752 2713 l-313 -3 6 -23 c4 -12 40 -88 80 -170 391 -787 1043 -1369
1848 -1646 329 -113 593 -160 948 -168 347 -8 615 22 932 103 736 189 1354
586 1821 1169 91 114 135 178 71 105 -253 -290 -594 -556 -934 -729 -1068
-542 -2315 -427 -3221 298 -319 256 -615 624 -804 999 l-36 72 -43 -2 c-23 -2
-183 -4 -355 -5z"/>
</g>
</svg>
