<?xml version="1.0" encoding="utf-8"?>
<!-- Generator: Adobe Illustrator 25.2.0, SVG Export Plug-In . SVG Version: 6.00 Build 0)  -->
<svg version="1.1" xmlns="http://www.w3.org/2000/svg" xmlns:xlink="http://www.w3.org/1999/xlink" x="0px" y="0px"
	 viewBox="0 0 567 283" style="enable-background:new 0 0 567 283;" xml:space="preserve">
<style type="text/css">
	.st0{fill:#FFFFFF;}
	.st1{font-family:'EthnocentricRg-Regular';}
	.st2{font-size:24.084px;}
	.st3{display:none;fill:#FFFFFF;}
</style>
<g id="Groupe_1">
	
		<image style="overflow:visible;enable-background:new    ;" width="642" height="285" id="Calque_3" xlink:href="3F715DDA.png"  transform="matrix(1 0 0 1 -38.9843 -1)">
	</image>
	<text id="MES_LIENS_SOCIAUX" transform="matrix(1 0 0 1 114.7373 267.9996)" class="st0 st1 st2">MES LIENS SOCIAUX</text>
	
		<image style="display:none;overflow:visible;enable-background:new    ;" width="39" height="229" id="MIDDLE" xlink:href="3F715DDE.png"  transform="matrix(1 0 0 1 267 11)">
	</image>
	
		<image style="display:none;overflow:visible;enable-background:new    ;" width="113" height="222" id="LEFT" xlink:href="3F715DD9.png"  transform="matrix(1 0 0 1 135 15)">
	</image>
	
		<image style="display:none;overflow:visible;enable-background:new    ;" width="113" height="222" id="RIGHT" xlink:href="3F715DDB.png"  transform="matrix(1 0 0 1 324 15)">
	</image>
	<path class="st3" d="M161.7,18.8c2.3,5.9,4.6,13.3,6.2,21.9c1.7,9.4,2.2,17.7,2.1,24.4c-2.8-0.3-5.5-0.7-8.3-1
		c-0.4,2.9-0.6,6.9-0.1,11.7c0.3,2.2,0.6,5.2,2,8.7c2.5,6.6,6.6,10.8,9,13.1c0.2,0.2,0,0,8,6.7c4,3.3,6,5,7.6,7.2
		c0.9,1.2,2.6,3.8,3.8,7.3c0.7,2,1.4,5.3,0,18.7c-0.9,8.2-1.3,8.3-1.1,11.2c0.4,4.7,1.7,8,3.9,13.5c2.9,7.1,5.9,12.2,6.6,13.3
		c3.9,6.4,7.6,10.6,11.1,14.5c4.5,5.1,8.3,8.6,10.8,10.9c2.5,2.3,6,5.5,10.9,9.2c8,6,13.2,8.5,12.9,9.2c-0.3,0.6-4.9-0.7-8.5-2.3
		c-4.9-2.1-8.4-4.6-12.3-7.7c-4.7-3.7-8.7-6.9-14.1-12.3c-8.4-8.4-14.3-16.1-18-21.5c-2.6-3.7-5.5-8.3-8.1-14.3
		c-2.3-5.2-3-8.2-3.3-10c-0.6-3.8-0.5-7.2-0.4-9.2c0.1-2.5,0.3-2.5,0.6-6.9c0.2-2.5,0.4-5.5,0.4-9.1c0-4.8,0-7.2-0.7-9.8
		c-1-3.5-2.7-5.8-3.6-7.1c-3-4.1-4.9-4.3-11.7-9.8c-4.6-3.7-7.2-5.9-9.5-9.4c-2.3-3.6-3.4-7-3.9-9.5c-0.4-2.7-0.8-5.8-0.9-9.1
		c-0.1-4.5,0.1-8.6,0.6-12c0.3,0.2,4.4,3.1,6.7,1.7c1.1-0.6,1.4-2.3,1.2-6.8c-0.3-7.8-1.8-13.6-1.9-14.2c-0.8-3.2-2.1-7.5-4.1-12.5"
		/>
</g>
<g id="Calque_2">
	<path class="st0" d="M161.7,18.8c2.3,5.9,4.6,13.3,6.2,21.9c1.7,9.4,2.2,17.7,2.1,24.4c-2.8-0.3-5.5-0.7-8.3-1
		c-0.4,2.9-0.6,6.9-0.1,11.7c0.3,2.2,0.6,5.2,2,8.7c2.5,6.6,6.6,10.8,9,13.1c0.2,0.2,0,0,8,6.7c4,3.3,6,5,7.6,7.2
		c0.9,1.2,2.6,3.8,3.8,7.3c0.7,2,1.4,5.3,0,18.7c-0.9,8.2-1.3,8.3-1.1,11.2c0.4,4.7,1.7,8,3.9,13.5c2.9,7.1,5.9,12.2,6.6,13.3
		c3.9,6.4,7.6,10.6,11.1,14.5c4.5,5.1,8.3,8.6,10.8,10.9c2.5,2.3,6,5.5,10.9,9.2c8,6,13.2,8.5,12.9,9.2c-0.3,0.6-4.9-0.7-8.5-2.3
		c-4.9-2.1-8.4-4.6-12.3-7.7c-4.7-3.7-8.7-6.9-14.1-12.3c-8.4-8.4-14.3-16.1-18-21.5c-2.6-3.7-5.5-8.3-8.1-14.3
		c-2.3-5.2-3-8.2-3.3-10c-0.6-3.8-0.5-7.2-0.4-9.2c0.1-2.5,0.3-2.5,0.6-6.9c0.2-2.5,0.4-5.5,0.4-9.1c0-4.8,0-7.2-0.7-9.8
		c-1-3.5-2.7-5.8-3.6-7.1c-3-4.1-4.9-4.3-11.7-9.8c-4.6-3.7-7.2-5.9-9.5-9.4c-2.3-3.6-3.4-7-3.9-9.5c-0.4-2.7-0.8-5.8-0.9-9.1
		c-0.1-4.5,0.1-8.6,0.6-12c0.3,0.2,4.4,3.1,6.7,1.7c1.1-0.6,1.4-2.3,1.2-6.8c-0.3-7.8-1.8-13.6-1.9-14.2c-0.8-3.2-2.1-7.5-4.1-12.5"
		/>
	<path class="st0" d="M410.4,18.8c-2.3,5.9-4.6,13.3-6.2,21.9c-1.7,9.4-2.2,17.7-2.1,24.4c2.8-0.3,5.5-0.7,8.3-1
		c0.4,2.9,0.6,6.9,0.1,11.7c-0.3,2.2-0.6,5.2-2,8.7c-2.5,6.6-6.6,10.8-9,13.1c-0.2,0.2,0,0-8,6.7c-4,3.3-6,5-7.6,7.2
		c-0.9,1.2-2.6,3.8-3.8,7.3c-0.7,2-1.4,5.3,0,18.7c0.9,8.2,1.3,8.3,1.1,11.2c-0.4,4.7-1.7,8-3.9,13.5c-2.9,7.1-5.9,12.2-6.6,13.3
		c-3.9,6.4-7.6,10.6-11.1,14.5c-4.5,5.1-8.3,8.6-10.8,10.9c-2.5,2.3-6,5.5-10.9,9.2c-8,6-13.2,8.5-12.9,9.2c0.3,0.6,4.9-0.7,8.5-2.3
		c4.9-2.1,8.4-4.6,12.3-7.7c4.7-3.7,8.7-6.9,14.1-12.3c8.4-8.4,14.3-16.1,18-21.5c2.6-3.7,5.5-8.3,8.1-14.3c2.3-5.2,3-8.2,3.3-10
		c0.6-3.8,0.5-7.2,0.4-9.2c-0.1-2.5-0.3-2.5-0.6-6.9c-0.2-2.5-0.4-5.5-0.4-9.1c0-4.8,0-7.2,0.7-9.8c1-3.5,2.7-5.8,3.6-7.1
		c3-4.1,4.9-4.3,11.7-9.8c4.6-3.7,7.2-5.9,9.5-9.4c2.3-3.6,3.4-7,3.9-9.5c0.4-2.7,0.8-5.8,0.9-9.1c0.1-4.5-0.1-8.6-0.6-12
		c-0.3,0.2-4.4,3.1-6.7,1.7c-1.1-0.6-1.4-2.3-1.2-6.8c0.3-7.8,1.8-13.6,1.9-14.2c0.8-3.2,2.1-7.5,4.1-12.5L410.4,18.8z"/>
	<path class="st0" d="M285.7,10.5c-3,6.6-6,13.5-8.9,20.7c-3.8,9.3-7.2,18.4-10.2,27.2c5.2,0,10.4,0.1,15.6,0.1
		c0.3,1.9,0.6,4.6,0.9,7.9c0.5,5.5,0.8,9.5,0.2,14.5c-0.6,5.3-1.9,9.2-3.1,12.8c-2,5.8-2.8,6.1-4.5,11.6c-1.5,4.8-2.1,8.6-2.6,11.3
		c-0.9,5.9-1.1,10.6-1.1,13.3c-0.1,6.2,0.5,11.1,0.9,13.3c0.8,5.8,1.5,6,3.4,14.5c1.7,7.5,2.9,12.8,3,20c0.1,4.9-0.2,9.6-0.4,11.1
		c-0.3,3.4-0.6,6-1,8.4c-0.7,4.9-1.1,7.6-2,11.2c-0.6,2.4-0.5,1.5-2.8,8.8c-0.9,3-1.2,3.9-2.6,8.6c-1,3.1-1.7,5.7-2.3,7.4
		c-0.4,1.8-0.8,3.5-1.2,5.3l6.9-4.8l5.1-4.5l6.5-5.1c1.5,1.1,3,2.3,4.5,3.4c0.9,0.9,1.9,1.7,2.8,2.6c1.4,1.1,2.8,2.3,4.2,3.4
		c2.7,2.7,5.3,5.5,8,8.2c0-1-0.5-4-0.5-4s-1-3.2-1.5-4.3c-1.6-3.7-1.9-4.1-3.1-7.2c-0.9-2.4-1.5-4.4-2.6-8.6c-0.5-1.9-0.7-2.8-0.9-4
		c-0.2-1.5-0.2-1.9-0.4-5c-0.3-4.2-0.5-4.6-0.5-6.8c0-1.3,0.1-1.2,0.1-3.9c0.1-2.8,0-4.1,0.1-6.3c0-1.8,0-4.8,0.3-7.9
		c0.1-1.9,0.3-2.6,1.2-9.1c0.4-3,0.8-6,1.3-9.1c1.1-8.1,1.3-9.1,1.4-10.7c0.1-0.8,0.4-4,0.5-8.3c0.1-4.6,0-8.1,0-8.8
		c-0.1-2.6-0.4-9.1-2.1-17.6c-1.3-6.7-2.2-8.3-5.2-19c-2.2-8-3.4-12.1-3.9-15.4c0,0-1.3-8.1-0.8-14.6c0.2-2.3,0.5-5.2,0.5-5.2
		c0.1-1.3,0.3-2.5,0.5-3.8c0.2-1.2,0.3-2.3,0.5-3.5c5.1-0.2,10.2-0.3,15.4-0.5c-3.7-8.9-7.5-17.7-11.2-26.6
		C291.3,24.5,288.5,17.5,285.7,10.5z"/>
</g>
</svg>
